<svg id="Layer_1" data-name="Layer 1" xmlns="http://www.w3.org/2000/svg" viewBox="0 0 262.49 41.99"><defs><style>.cls-1{fill:#f3dba1;}.cls-2{fill:#f8a350;}.cls-3{fill:#f9baae;}</style></defs><title>infocus_logo</title><ellipse class="cls-1" cx="120.05" cy="22.35" rx="19.95" ry="19.15"/><path class="cls-2" d="M4.8,41.59H.22V.45H4.8Z" transform="translate(-0.22 -0.03)"/><path class="cls-2" d="M14.69.45h4.42l20.58,35.4-1.32-.2V.45h4.54V41.57H38.4L17.59,6l1.61.42V41.57H14.69Z" transform="translate(-0.22 -0.03)"/><path class="cls-2" d="M67,.45h7.45V41.59H67Zm3.16,0h26.3V6.88H70.12Zm0,17.89H92.94v6.39H70.12Z" transform="translate(-0.22 -0.03)"/><path class="cls-2" d="M158.93,42l-3.67-1.85a13.2,13.2,0,0,1-5.63-5.31,16.16,16.16,0,0,1-2-8.18V15.39a16.13,16.13,0,0,1,2-8.17,13.16,13.16,0,0,1,5.63-5.32A18.81,18.81,0,0,1,163.92,0a17.37,17.37,0,0,1,7.48,1.58A14.77,14.77,0,0,1,177,6.17a17.33,17.33,0,0,1,3.05,7h-7.71a8.88,8.88,0,0,0-1.78-3.47,8.46,8.46,0,0,0-6.61-3.07,9.25,9.25,0,0,0-4.55,1.06,7.29,7.29,0,0,0-3,3,9.85,9.85,0,0,0-1,4.65V26.68a9.79,9.79,0,0,0,1,4.63,7.29,7.29,0,0,0,3,3,9.36,9.36,0,0,0,4.55,1.06,8.93,8.93,0,0,0,3.69-.77,8.18,8.18,0,0,0,2.94-2.23,8.8,8.8,0,0,0,1.76-3.54H180a17.21,17.21,0,0,1-3.06,7,14.87,14.87,0,0,1-5.59,4.55A17.16,17.16,0,0,1,163.92,42Z" transform="translate(-0.22 -0.03)"/><path class="cls-2" d="M195.75,40.22A12.49,12.49,0,0,1,190.14,35a16.83,16.83,0,0,1-1.91-8.28V.45h7.45V26.91A8.23,8.23,0,0,0,198,33.18a11,11,0,0,0,13.24,0,8.2,8.2,0,0,0,2.36-6.27V.45h7.45V26.71A16.73,16.73,0,0,1,219.14,35a12.56,12.56,0,0,1-5.62,5.23,22.83,22.83,0,0,1-17.77,0Z" transform="translate(-0.22 -0.03)"/><path class="cls-2" d="M242.26,42l-3-.58a28.21,28.21,0,0,1-5.7-1.71,23.23,23.23,0,0,1-4.86-2.8l4-5.35a19,19,0,0,0,5.92,3,23.22,23.22,0,0,0,7,1,14.43,14.43,0,0,0,7.2-1.48A4.61,4.61,0,0,0,255.33,30v0a4.09,4.09,0,0,0-1.15-3,7.16,7.16,0,0,0-3-1.65,37.74,37.74,0,0,0-4.73-1l-.19,0a.58.58,0,0,1-.19,0l-.57-.08a53.33,53.33,0,0,1-7.58-1.6,10.7,10.7,0,0,1-5-3.33q-2.07-2.4-2.07-6.84v0a11.32,11.32,0,0,1,1.94-6.65,11.89,11.89,0,0,1,5.67-4.22,24.86,24.86,0,0,1,9-1.44,25.25,25.25,0,0,1,4.95.49A27.35,27.35,0,0,1,257.21,2a26.92,26.92,0,0,1,4.59,2.36l-3.66,5.52a22.4,22.4,0,0,0-5.37-2.58,17.74,17.74,0,0,0-5.37-.88,13.28,13.28,0,0,0-6.77,1.45,4.5,4.5,0,0,0-2.41,4.07v0A3.94,3.94,0,0,0,239.46,15a7.64,7.64,0,0,0,3.11,1.67c1.25.36,3,.74,5.18,1.14l.24,0,.24,0,.34.06.35.05A42.13,42.13,0,0,1,256,19.85a10.91,10.91,0,0,1,4.77,3.44,10.12,10.12,0,0,1,1.91,6.51v.05a10.82,10.82,0,0,1-2,6.57,12.26,12.26,0,0,1-5.85,4.17A26.88,26.88,0,0,1,245.57,42Z" transform="translate(-0.22 -0.03)"/><path class="cls-3" d="M136.89,21.36a16.67,16.67,0,1,1-33.34,0c0-9.21,7.37,4.5,16.58,4.5S136.89,12.15,136.89,21.36Z" transform="translate(-0.22 -0.03)"/><path class="cls-2" d="M132.19,37.92a20.68,20.68,0,1,0-12,3.87A20.53,20.53,0,0,0,128.51,40M104.37,21.5a15.9,15.9,0,1,1,15.89,16.07A16,16,0,0,1,104.37,21.5Z" transform="translate(-0.22 -0.03)"/><path class="cls-2" d="M108,6.35s5.66,11.44,7.3,15.58c2.18,4,4.54,8.44,4.54,8.44s3.45-6.82,4.36-8.57C125.44,19.6,131.5,8,131.5,8s-4.12-4.29-9.94-4.29S108,6.35,108,6.35Z" transform="translate(-0.22 -0.03)"/><ellipse class="cls-2" cx="119.74" cy="34.7" rx="3.11" ry="3.19"/></svg>