<svg id="Layer_1" data-name="Layer 1" xmlns="http://www.w3.org/2000/svg" viewBox="0 0 116.43 115.66"><defs><style>.cls-1{fill:#f3dba1;}.cls-2{fill:#f8b4a0;}.cls-3{fill:#ef903b;}</style></defs><title>o_logo</title><ellipse class="cls-1" cx="58.74" cy="60.32" rx="47.28" ry="45.38"/><path class="cls-2" d="M106.51,61.43c0,25.59-21,46.34-46.85,46.34S12.81,87,12.81,61.43,33.53,73.94,59.4,73.94,106.51,35.83,106.51,61.43Z" transform="translate(-1.32 -2.57)"/><path class="cls-3" d="M93.33,107.48A57.76,57.76,0,0,0,59.53,2.57a57.83,57.83,0,1,0,0,115.66A58.25,58.25,0,0,0,83,113.34S86.4,112.3,93.33,107.48ZM15.11,61.81a44.68,44.68,0,1,1,44.68,44.68A44.67,44.67,0,0,1,15.11,61.81Z" transform="translate(-1.32 -2.57)"/><path class="cls-3" d="M25.4,19.68S41.32,51.51,45.91,63C52,74.23,58.68,86.49,58.68,86.49s9.7-19,12.26-23.83c3.4-6.13,20.42-38.47,20.42-38.47S79.79,12.28,63.45,12.28,25.4,19.68,25.4,19.68Z" transform="translate(-1.32 -2.57)"/><ellipse class="cls-3" cx="57.64" cy="96.03" rx="8.74" ry="8.88"/><path class="cls-3" d="M103.19,115.68" transform="translate(-1.32 -2.57)"/></svg>